<?xml version="1.0" encoding="UTF-8" standalone="no"?>
<!-- Created with Inkscape (http://www.inkscape.org/) -->

<svg
   xmlns:dc="http://purl.org/dc/elements/1.1/"
   xmlns:cc="http://creativecommons.org/ns#"
   xmlns:rdf="http://www.w3.org/1999/02/22-rdf-syntax-ns#"
   xmlns:svg="http://www.w3.org/2000/svg"
   xmlns="http://www.w3.org/2000/svg"
   xmlns:sodipodi="http://sodipodi.sourceforge.net/DTD/sodipodi-0.dtd"
   xmlns:inkscape="http://www.inkscape.org/namespaces/inkscape"
   width="210mm"
   height="297mm"
   viewBox="0 0 744.09448819 1052.3622047"
   id="svg2"
   version="1.1"
   inkscape:version="0.91 r13725"
   sodipodi:docname="baseGR2018.svg">
  <defs
     id="defs4">
    <marker
       orient="auto"
       id="DistanceX"
       style="overflow:visible"
       refX="0.0"
       refY="0.0">
      <path
         id="path4143"
         d="M 3,-3 L -3,3 M 0,-5 L  0,5"
         style="stroke:#000000; stroke-width:0.5" />
    </marker>
    <pattern
       id="Hatch"
       x="0"
       y="0"
       patternUnits="userSpaceOnUse"
       width="8"
       height="8">
      <path
         id="path4146"
         d="M8 4 l-4,4"
         stroke-width="0.25"
         stroke="#000000"
         linecap="square" />
      <path
         id="path4148"
         d="M6 2 l-4,4"
         stroke-width="0.25"
         stroke="#000000"
         linecap="square" />
      <path
         id="path4150"
         d="M4 0 l-4,4"
         stroke-width="0.25"
         stroke="#000000"
         linecap="square" />
    </pattern>
    <symbol
       id="*MODEL_SPACE" />
    <symbol
       id="*PAPER_SPACE" />
  </defs>
  <sodipodi:namedview
     id="base"
     pagecolor="#ffffff"
     bordercolor="#666666"
     borderopacity="1.0"
     inkscape:pageopacity="0.0"
     inkscape:pageshadow="2"
     inkscape:zoom="0.52758936"
     inkscape:cx="341.21412"
     inkscape:cy="254.00553"
     inkscape:document-units="px"
     inkscape:current-layer="layer1"
     showgrid="false"
     inkscape:snap-bbox="true"
     inkscape:object-nodes="true"
     inkscape:window-width="1366"
     inkscape:window-height="705"
     inkscape:window-x="1272"
     inkscape:window-y="244"
     inkscape:window-maximized="1" />
  <metadata
     id="metadata7">
    <rdf:RDF>
      <cc:Work
         rdf:about="">
        <dc:format>image/svg+xml</dc:format>
        <dc:type
           rdf:resource="http://purl.org/dc/dcmitype/StillImage" />
        <dc:title></dc:title>
      </cc:Work>
    </rdf:RDF>
  </metadata>
  <g
     inkscape:label="Calque 1"
     inkscape:groupmode="layer"
     id="layer1">
    <g
       id="g4154"
       inkscape:label="0"
       transform="translate(-407.68932,355.9681)">
      <path
         id="path4156"
         d="m 253.62611,970.88074 a 5.846457,5.846457 0 1 0 -11.69291,0 5.846457,5.846457 0 1 0 11.69291,0 z"
         style="fill:none;stroke:#000000"
         inkscape:connector-curvature="0" />
      <path
         id="path4158"
         d="m 1275.5906,1014.9056 0,-977.449035"
         style="fill:none;stroke:#000000"
         inkscape:connector-curvature="0" />
      <path
         id="path4160"
         d="m 1245.3466,-0.125865 25.0549,25.05488"
         style="fill:none;stroke:#000000"
         inkscape:connector-curvature="0" />
      <path
         id="path4162"
         d="m 1232.819,-5.314961 -977.44905,0"
         style="fill:none;stroke:#000000"
         inkscape:connector-curvature="0" />
      <path
         id="path4164"
         d="m 217.78746,24.929015 25.055,-25.05488"
         style="fill:none;stroke:#000000"
         inkscape:connector-curvature="0" />
      <path
         id="path4166"
         d="m 212.59842,37.456565 0,977.449035"
         style="fill:none;stroke:#000000"
         inkscape:connector-curvature="0" />
      <path
         id="path4168"
         d="m 217.78746,1027.4331 25.055,25.055"
         style="fill:none;stroke:#000000"
         inkscape:connector-curvature="0" />
      <path
         id="path4170"
         d="m 255.36995,1057.6772 977.44905,0"
         style="fill:none;stroke:#000000"
         inkscape:connector-curvature="0" />
      <path
         id="path4172"
         d="m 1245.3466,1052.4881 25.0549,-25.055"
         style="fill:none;stroke:#000000"
         inkscape:connector-curvature="0" />
      <path
         id="path4174"
         d="m 1140.9449,473.0315 a 17.716535,17.716535 0 0 0 -17.7166,-17.71654"
         style="fill:none;stroke:#000000"
         inkscape:connector-curvature="0" />
      <path
         id="path4176"
         d="m 1123.2283,597.04724 a 17.716535,17.716535 0 0 0 17.7166,-17.71653"
         style="fill:none;stroke:#000000"
         inkscape:connector-curvature="0" />
      <path
         id="path4178"
         d="m 1009.8425,721.06299 a 17.716535,17.716535 0 0 0 17.7166,-17.71653"
         style="fill:none;stroke:#000000"
         inkscape:connector-curvature="0" />
      <path
         id="path4180"
         d="m 921.25984,703.34646 a 17.716535,17.716535 0 0 0 17.71654,17.71653"
         style="fill:none;stroke:#000000"
         inkscape:connector-curvature="0" />
      <path
         id="path4182"
         d="M 938.97638,455.31496 A 17.716535,17.716535 0 0 0 921.25984,473.0315"
         style="fill:none;stroke:#000000"
         inkscape:connector-curvature="0" />
      <path
         id="path4184"
         d="M 566.92913,473.0315 A 17.716535,17.716535 0 0 0 549.2126,455.31496"
         style="fill:none;stroke:#000000"
         inkscape:connector-curvature="0" />
      <path
         id="path4186"
         d="m 549.2126,721.06299 a 17.716535,17.716535 0 0 0 17.71653,-17.71653"
         style="fill:none;stroke:#000000"
         inkscape:connector-curvature="0" />
      <path
         id="path4188"
         d="m 460.62992,703.34646 a 17.716535,17.716535 0 0 0 17.71654,17.71653"
         style="fill:none;stroke:#000000"
         inkscape:connector-curvature="0" />
      <path
         id="path4190"
         d="m 347.24409,579.33071 a 17.716535,17.716535 0 0 0 17.71654,17.71653"
         style="fill:none;stroke:#000000"
         inkscape:connector-curvature="0" />
      <path
         id="path4192"
         d="M 364.96063,455.31496 A 17.716535,17.716535 0 0 0 347.24409,473.0315"
         style="fill:none;stroke:#000000"
         inkscape:connector-curvature="0" />
      <path
         id="path4194"
         d="m 927.1063,49.473404 a 5.846457,5.846457 0 1 0 -11.69291,0 5.846457,5.846457 0 1 0 11.69291,0 z"
         style="fill:none;stroke:#000000"
         inkscape:connector-curvature="0" />
      <path
         id="path4196"
         d="m 749.94095,49.473404 a 5.84646,5.84646 0 1 0 -11.69292,0 5.84646,5.84646 0 1 0 11.69292,0 z"
         style="fill:none;stroke:#000000"
         inkscape:connector-curvature="0" />
      <path
         id="path4198"
         d="m 572.77559,49.473404 a 5.846457,5.846457 0 1 0 -11.69291,0 5.846457,5.846457 0 1 0 11.69291,0 z"
         style="fill:none;stroke:#000000"
         inkscape:connector-curvature="0" />
      <path
         id="path4200"
         d="m 1189.311,96.307384 a 5.846457,5.846457 0 1 0 -11.6929,0 5.846457,5.846457 0 1 0 11.6929,0 z"
         style="fill:none;stroke:#000000"
         inkscape:connector-curvature="0" />
      <path
         id="path4202"
         d="m 1189.311,964.04594 a 5.846457,5.846457 0 1 0 -11.6929,0 5.846457,5.846457 0 1 0 11.6929,0 z"
         style="fill:none;stroke:#000000"
         inkscape:connector-curvature="0" />
      <path
         id="path4204"
         d="m 310.57087,964.04594 a 5.84646,5.84646 0 1 0 -11.69292,0 5.84646,5.84646 0 1 0 11.69292,0 z"
         style="fill:none;stroke:#000000"
         inkscape:connector-curvature="0" />
      <path
         id="path4206"
         d="m 278.6811,64.41762 a 5.846457,5.846457 0 1 0 -11.69291,0 5.846457,5.846457 0 1 0 11.69291,0 z"
         style="fill:none;stroke:#000000"
         inkscape:connector-curvature="0" />
      <path
         id="path4208"
         d="m 278.6811,995.93573 a 5.846457,5.846457 0 1 0 -11.69291,0 5.846457,5.846457 0 1 0 11.69291,0 z"
         style="fill:none;stroke:#000000"
         inkscape:connector-curvature="0" />
      <path
         id="path4210"
         d="m 1221.2008,995.93573 a 5.846457,5.846457 0 1 0 -11.6929,0 5.846457,5.846457 0 1 0 11.6929,0 z"
         style="fill:none;stroke:#000000"
         inkscape:connector-curvature="0" />
      <path
         id="path4212"
         d="m 1221.2008,64.41762 a 5.846457,5.846457 0 1 0 -11.6929,0 5.846457,5.846457 0 1 0 11.6929,0 z"
         style="fill:none;stroke:#000000"
         inkscape:connector-curvature="0" />
      <path
         id="path4214"
         d="m 363.72047,30.11811 a 18.248031,18.248031 0 1 0 -36.49606,0 18.248031,18.248031 0 1 0 36.49606,0 z"
         style="fill:none;stroke:#000000"
         inkscape:connector-curvature="0" />
      <path
         id="path4216"
         d="m 1160.9646,30.11811 a 18.24805,18.24805 0 1 0 -36.4961,0 18.24805,18.24805 0 1 0 36.4961,0 z"
         style="fill:none;stroke:#000000"
         inkscape:connector-curvature="0" />
      <path
         id="path4218"
         d="m 283.99606,915.94488 a 18.248031,18.248031 0 1 0 -36.49606,0 18.248031,18.248031 0 1 0 36.49606,0 z"
         style="fill:none;stroke:#000000"
         inkscape:connector-curvature="0" />
      <path
         id="path4220"
         d="m 1240.689,915.94488 a 18.24805,18.24805 0 1 0 -36.4961,0 18.24805,18.24805 0 1 0 36.4961,0 z"
         style="fill:none;stroke:#000000"
         inkscape:connector-curvature="0" />
      <path
         id="path4222"
         d="m 1040.315,434.05512 a 5.6693,5.6693 0 1 0 -11.3386,0 5.6693,5.6693 0 1 0 11.3386,0 z"
         style="fill:none;stroke:#000000"
         inkscape:connector-curvature="0" />
      <path
         id="path4224"
         d="m 1139.5276,618.30709 a 5.6693,5.6693 0 1 0 -11.3386,0 5.6693,5.6693 0 1 0 11.3386,0 z"
         style="fill:none;stroke:#000000"
         inkscape:connector-curvature="0" />
      <path
         id="path4226"
         d="m 360,618.30709 a 5.6692915,5.6692915 0 1 0 -11.33858,0 5.6692915,5.6692915 0 1 0 11.33858,0 z"
         style="fill:none;stroke:#000000"
         inkscape:connector-curvature="0" />
      <path
         id="path4228"
         d="m 1208.622,471.25984 a 5.669291,5.669291 0 1 0 -11.3385,0 5.669291,5.669291 0 1 0 11.3385,0 z"
         style="fill:none;stroke:#000000"
         inkscape:connector-curvature="0" />
      <path
         id="path4230"
         d="m 1208.622,581.10236 a 5.669291,5.669291 0 1 0 -11.3385,0 5.669291,5.669291 0 1 0 11.3385,0 z"
         style="fill:none;stroke:#000000"
         inkscape:connector-curvature="0" />
      <path
         id="path4232"
         d="m 290.90551,471.25984 a 5.6692915,5.6692915 0 1 0 -11.33858,0 5.6692915,5.6692915 0 1 0 11.33858,0 z"
         style="fill:none;stroke:#000000"
         inkscape:connector-curvature="0" />
      <path
         id="path4234"
         d="m 1263.189,455.31496 0,141.73228"
         style="fill:none;stroke:#000000"
         inkscape:connector-curvature="0" />
      <path
         id="path4236"
         d="m 1263.189,455.31496 a 14.17325,14.17325 0 1 0 -28.3465,0"
         style="fill:none;stroke:#000000"
         inkscape:connector-curvature="0" />
      <path
         id="path4238"
         d="m 1234.8425,597.04724 0,-141.73228"
         style="fill:none;stroke:#000000"
         inkscape:connector-curvature="0" />
      <path
         id="path4240"
         d="m 1234.8425,597.04724 a 14.17325,14.17325 0 1 0 28.3465,0"
         style="fill:none;stroke:#000000"
         inkscape:connector-curvature="0" />
      <path
         id="path4242"
         d="m 253.34646,455.31496 0,141.73228"
         style="fill:none;stroke:#000000"
         inkscape:connector-curvature="0" />
      <path
         id="path4244"
         d="m 253.34646,455.31496 a 14.17323,14.17323 0 1 0 -28.34646,0"
         style="fill:none;stroke:#000000"
         inkscape:connector-curvature="0" />
      <path
         id="path4246"
         d="m 225,597.04724 0,-141.73228"
         style="fill:none;stroke:#000000"
         inkscape:connector-curvature="0" />
      <path
         id="path4248"
         d="m 225,597.04724 a 14.17323,14.17323 0 0 0 28.34646,0"
         style="fill:none;stroke:#000000"
         inkscape:connector-curvature="0" />
      <path
         id="path4250"
         d="m 290.90551,581.10236 a 5.6692915,5.6692915 0 1 0 -11.33858,0 5.6692915,5.6692915 0 1 0 11.33858,0 z"
         style="fill:none;stroke:#000000"
         inkscape:connector-curvature="0" />
      <path
         id="path4252"
         d="m 459.2126,434.05512 a 5.669291,5.669291 0 1 0 -11.33858,0 5.669291,5.669291 0 1 0 11.33858,0 z"
         style="fill:none;stroke:#000000"
         inkscape:connector-curvature="0" />
      <path
         id="path4254"
         d="m 549.2126,455.31496 -184.25197,0"
         style="fill:none;stroke:#000000"
         inkscape:connector-curvature="0" />
      <path
         id="path4256"
         d="m 347.24409,473.0315 0,106.29921"
         style="fill:none;stroke:#000000"
         inkscape:connector-curvature="0" />
      <path
         id="path4258"
         d="m 364.96063,597.04724 77.95276,0"
         style="fill:none;stroke:#000000"
         inkscape:connector-curvature="0" />
      <path
         id="path4260"
         d="M 460.62992,614.76378 A 17.716535,17.716535 0 0 0 442.91338,597.04724"
         style="fill:none;stroke:#000000"
         inkscape:connector-curvature="0" />
      <path
         id="path4262"
         d="m 460.62992,614.76378 0,88.58268"
         style="fill:none;stroke:#000000"
         inkscape:connector-curvature="0" />
      <path
         id="path4264"
         d="m 478.34646,721.06299 70.86614,0"
         style="fill:none;stroke:#000000"
         inkscape:connector-curvature="0" />
      <path
         id="path4266"
         d="m 566.92913,473.0315 0,230.31496"
         style="fill:none;stroke:#000000"
         inkscape:connector-curvature="0" />
      <path
         id="path4268"
         d="m 1123.2283,455.31496 -184.25192,0"
         style="fill:none;stroke:#000000"
         inkscape:connector-curvature="0" />
      <path
         id="path4270"
         d="m 921.25984,473.0315 0,230.31496"
         style="fill:none;stroke:#000000"
         inkscape:connector-curvature="0" />
      <path
         id="path4272"
         d="m 1009.8425,721.06299 -70.86612,0"
         style="fill:none;stroke:#000000"
         inkscape:connector-curvature="0" />
      <path
         id="path4274"
         d="m 1027.5591,614.76378 0,88.58268"
         style="fill:none;stroke:#000000"
         inkscape:connector-curvature="0" />
      <path
         id="path4276"
         d="m 1045.2756,597.04724 a 17.716535,17.716535 0 0 0 -17.7165,17.71654"
         style="fill:none;stroke:#000000"
         inkscape:connector-curvature="0" />
      <path
         id="path4278"
         d="m 1123.2283,597.04724 -77.9527,0"
         style="fill:none;stroke:#000000"
         inkscape:connector-curvature="0" />
      <path
         id="path4280"
         d="m 1140.9449,473.0315 0,106.29921"
         style="fill:none;stroke:#000000"
         inkscape:connector-curvature="0" />
      <path
         id="path4282"
         d="m 310.57087,96.307384 a 5.84646,5.84646 0 1 0 -11.69292,0 5.84646,5.84646 0 1 0 11.69292,0 z"
         style="fill:none;stroke:#000000"
         inkscape:connector-curvature="0" />
      <path
         id="path4284"
         d="m 1246.0039,366.73228 a 5.846457,5.846457 0 1 0 -11.6929,0 5.846457,5.846457 0 1 0 11.6929,0 z"
         style="fill:none;stroke:#000000"
         inkscape:connector-curvature="0" />
      <path
         id="path4286"
         d="m 253.87795,366.73228 a 5.846457,5.846457 0 1 0 -11.69291,0 5.846457,5.846457 0 1 0 11.69291,0 z"
         style="fill:none;stroke:#000000"
         inkscape:connector-curvature="0" />
      <path
         id="path4288"
         d="m 1270.4015,1027.4331 a 17.716535,17.716535 0 0 0 5.1891,-12.5275"
         style="fill:none;stroke:#000000"
         inkscape:connector-curvature="0" />
      <path
         id="path4290"
         d="m 1232.819,1057.6772 a 17.716535,17.716535 0 0 0 12.5275,-5.1891"
         style="fill:none;stroke:#000000"
         inkscape:connector-curvature="0" />
      <path
         id="path4292"
         d="m 242.84247,1052.4881 a 17.716535,17.716535 0 0 0 12.52748,5.1891"
         style="fill:none;stroke:#000000"
         inkscape:connector-curvature="0" />
      <path
         id="path4294"
         d="m 212.59842,1014.9056 a 17.716535,17.716535 0 0 0 5.18906,12.5275"
         style="fill:none;stroke:#000000"
         inkscape:connector-curvature="0" />
      <path
         id="path4296"
         d="m 217.78748,24.929083 a 17.716535,17.716535 0 0 0 -5.18906,12.527484"
         style="fill:none;stroke:#000000"
         inkscape:connector-curvature="0" />
      <path
         id="path4298"
         d="m 255.36995,-5.314961 a 17.716535,17.716535 0 0 0 -12.52748,5.189053"
         style="fill:none;stroke:#000000"
         inkscape:connector-curvature="0" />
      <path
         id="path4300"
         d="M 1245.3465,-0.125908 A 17.716535,17.716535 0 0 0 1232.819,-5.314961"
         style="fill:none;stroke:#000000"
         inkscape:connector-curvature="0" />
      <path
         id="path4302"
         d="m 1275.5906,37.456565 a 17.716535,17.716535 0 0 0 -5.1891,-12.527483"
         style="fill:none;stroke:#000000"
         inkscape:connector-curvature="0" />
      <path
         id="path4304"
         d="m 1196.1458,1020.9907 a 5.846457,5.846457 0 1 0 -11.6929,0 5.846457,5.846457 0 1 0 11.6929,0 z"
         style="fill:none;stroke:#000000"
         inkscape:connector-curvature="0" />
      <path
         id="path4306"
         d="m 1246.2558,970.88074 a 5.846457,5.846457 0 1 0 -11.6929,0 5.846457,5.846457 0 1 0 11.6929,0 z"
         style="fill:none;stroke:#000000"
         inkscape:connector-curvature="0" />
      <path
         id="path4308"
         d="m 1246.2558,89.472614 a 5.846457,5.846457 0 1 0 -11.6929,0 5.846457,5.846457 0 1 0 11.6929,0 z"
         style="fill:none;stroke:#000000"
         inkscape:connector-curvature="0" />
      <path
         id="path4310"
         d="m 1196.1458,39.36263 a 5.846457,5.846457 0 1 0 -11.6929,0 5.846457,5.846457 0 1 0 11.6929,0 z"
         style="fill:none;stroke:#000000"
         inkscape:connector-curvature="0" />
      <path
         id="path4312"
         d="m 253.62611,89.472614 a 5.846457,5.846457 0 1 0 -11.69291,0 5.846457,5.846457 0 1 0 11.69291,0 z"
         style="fill:none;stroke:#000000"
         inkscape:connector-curvature="0" />
      <path
         id="path4314"
         d="m 303.73607,39.36263 a 5.84646,5.84646 0 1 0 -11.69292,0 5.84646,5.84646 0 1 0 11.69292,0 z"
         style="fill:none;stroke:#000000"
         inkscape:connector-curvature="0" />
      <path
         id="path4316"
         d="m 303.73607,1020.9907 a 5.84646,5.84646 0 1 0 -11.69292,0 5.84646,5.84646 0 1 0 11.69292,0 z"
         style="fill:none;stroke:#000000"
         inkscape:connector-curvature="0" />
      <path
         id="path4318"
         d="m 838.52362,49.473404 a 5.846457,5.846457 0 1 0 -11.69291,0 5.846457,5.846457 0 1 0 11.69291,0 z"
         style="fill:none;stroke:#000000"
         inkscape:connector-curvature="0" />
      <path
         id="path4320"
         d="m 661.35827,49.473404 a 5.84646,5.84646 0 1 0 -11.69292,0 5.84646,5.84646 0 1 0 11.69292,0 z"
         style="fill:none;stroke:#000000"
         inkscape:connector-curvature="0" />
    </g>
  </g>
</svg>
